MoBL_ARMS_shoulder_elvation_states	
version=1	
nRows=210	
nColumns=2	
inDegrees=yes	
	
# SIMM Motion File Header:	
name MoBL_ARMS_shoulder_elvation_states	
datacolumns 2	
datarows 210	
otherdata 1	
range 0 0.483794841	
endheader	
time	shoulder_elv
0	30.0000006
0.01	29.98307144
0.011471403	29.97772986
0.013674132	29.96836008
0.017832935	29.94619912
0.020400752	29.92959865
0.0223085	29.91582826
0.024216247	29.90082831
0.026719828	29.87928609
0.029223408	29.85563143
0.031028408	29.83727427
0.032833408	29.81782021
0.035475683	29.78737307
0.037814683	29.75846649
0.040153684	29.72773293
0.042092706	29.70086405
0.044031728	29.67274323
0.046474697	29.63552621
0.048917666	29.59632473
0.050799466	29.56477001
0.052681266	29.53204202
0.055232566	29.48579141
0.057510947	29.44266758
0.059789329	29.39782192
0.061771677	29.35741198
0.063754025	29.31570204
0.065736373	29.27269934
0.068460384	29.21149686
0.070467418	29.16484671
0.072474452	29.11687295
0.074921592	29.05659822
0.077103873	29.00119346
0.079286154	28.94423931
0.081468434	28.88573059
0.083650715	28.82567866
0.085832996	28.76407747
0.088015277	28.70093951
0.090197557	28.63625785
0.092379838	28.57004615
0.094562119	28.50229651
0.0967444	28.4330238
0.09892668	28.3622192
0.10087896	28.29759207
0.10283124	28.23174558
0.105206803	28.14998908
0.107582365	28.06643752
0.109603038	27.9939647
0.11162371	27.92019832
0.113644383	27.8451469
0.116303705	27.74441568
0.118322904	27.66645293
0.120342103	27.58721202
0.122781462	27.48978902
0.125220821	27.39051101
0.127045094	27.31506424
0.128869368	27.23858499
0.131508479	27.12613032
0.133848801	27.02461331
0.136189123	26.9214213
0.138192806	26.83173875
0.140196489	26.74083679
0.142200172	26.64871346
0.144943954	26.52059331
0.14701354	26.42244896
0.149083125	26.32302009
0.151152711	26.22230543
0.153773483	26.09293513
0.155822516	25.99036102
0.15787155	25.88654552
0.159920583	25.78148748
0.162599455	25.64227514
0.164655995	25.53397262
0.166712535	25.42443825
0.168769075	25.31367121
0.171450533	25.16740749
0.173505889	25.05388737
0.175561245	24.93915655
0.177616602	24.82321447
0.180319833	24.66889555
0.182378021	24.55000679
0.184436208	24.42992481
0.186494396	24.30864932
0.189219738	24.14624062
0.191281655	24.02198854
0.193343571	23.89656099
0.195405488	23.76995785
0.198139074	23.60031635
0.20020621	23.47067449
0.202273346	23.33987454
0.204340483	23.20791652
0.207079246	23.03131651
0.209149348	22.89649756
0.211219451	22.76054178
0.213289554	22.62344934
0.216041265	22.43947408
0.218114687	22.29953596
0.220188108	22.15848324
0.222261529	22.01631629
0.225027568	21.82494148
0.227105024	21.67991926
0.229182481	21.53380538
0.231259937	21.38660044
0.234038875	21.18800167
0.23612071	21.03795899
0.238202545	20.88684883
0.240284381	20.73467206
0.243076461	20.52892232
0.24516315	20.37391774
0.247249838	20.21787108
0.249756488	20.02904302
0.251992131	19.85937968
0.254227775	19.68853873
0.256463419	19.51653851
0.258699062	19.34337932
0.260934706	19.16907944
0.26317035	18.99363977
0.265405994	18.81707837
0.267641637	18.63939689
0.269877281	18.46061307
0.272112925	18.28072944
0.274348568	18.09976332
0.276584212	17.91771818
0.278819856	17.73461087
0.2810555	17.55044583
0.283291143	17.36523951
0.285526787	17.17899731
0.288252246	16.95057305
0.290310632	16.77705753
0.292369017	16.60269976
0.294982319	16.38012869
0.297299837	16.1816384
0.299617354	15.98210912
0.301934872	15.78156482
0.304252389	15.58000698
0.306569907	15.37746257
0.308887425	15.17393061
0.310953636	14.99166132
0.313019848	14.80862983
0.315551744	14.58333221
0.318083641	14.35692744
0.320158003	14.17063248
0.322232365	13.98361668
0.324825344	13.74885714
0.327418323	13.51301242
0.329404453	13.3316519
0.331390584	13.14967624
0.334106423	12.89987501
0.336822262	12.64897294
0.338833286	12.46249934
0.340844309	12.27544639
0.343642456	12.01424716
0.346007133	11.79268021
0.34837181	11.57037867
0.350736487	11.34735277
0.353101164	11.12363302
0.355465841	10.89922713
0.357830518	10.67416962
0.360195196	10.44846583
0.362559873	10.2221536
0.364635294	10.02302548
0.366710716	9.823458461
0.369340246	9.569992227
0.371969776	9.315872667
0.374150964	9.104600024
0.376332151	8.89291939
0.378513338	8.680842223
0.381402209	8.399387274
0.383711698	8.173933993
0.386021188	7.948116826
0.388330677	7.721951463
0.390640167	7.495470288
0.392949656	7.268690748
0.3958258	6.985898389
0.39793398	6.778372033
0.400042161	6.570670996
0.402981212	6.280848383
0.405124114	6.069374974
0.407267015	5.857783759
0.410000507	5.587751858
0.412733999	5.317612736
0.414788587	5.114533771
0.416843176	4.911439365
0.419598858	4.639065569
0.422354541	4.366757668
0.424547191	4.150174064
0.426739842	3.933688464
0.429566296	3.654824051
0.431941082	3.420726955
0.434315867	3.186863455
0.436690653	2.953257016
0.439065439	2.719956344
0.441440225	2.486984995
0.443815011	2.254394471
0.446189797	2.022208132
0.448564583	1.790474027
0.450939369	1.559224003
0.453314155	1.328506404
0.455688941	1.098351532
0.458206159	0.855054516
0.460723377	0.612490175
0.463452238	0.350411649
0.466181098	0.089317803
0.468009781	-0.085068573
0.469838463	-0.258972711
0.47250792	-0.511913418
0.474692119	-0.718029546
0.476876318	-0.923341178
0.479060517	-1.127821528
0.481575584	-1.36219451
0.483794841	-1.568005874
